<?xml version="1.0" encoding="UTF-8" standalone="no"?>
<svg
   fill="none"
   viewBox="0 0 128 128"
   version="1.1"
   id="svg1200"
   sodipodi:docname="favicon.svg"
   inkscape:version="1.2.2 (732a01da63, 2022-12-09)"
   xmlns:inkscape="http://www.inkscape.org/namespaces/inkscape"
   xmlns:sodipodi="http://sodipodi.sourceforge.net/DTD/sodipodi-0.dtd"
   xmlns="http://www.w3.org/2000/svg"
   xmlns:svg="http://www.w3.org/2000/svg">
  <defs
     id="defs1204">
    <rect
       x="-146.88645"
       y="-56.376785"
       width="166.06223"
       height="56.376785"
       id="rect291" />
  </defs>
  <sodipodi:namedview
     id="namedview1202"
     pagecolor="#ffffff"
     bordercolor="#000000"
     borderopacity="0.25"
     inkscape:showpageshadow="2"
     inkscape:pageopacity="0.0"
     inkscape:pagecheckerboard="0"
     inkscape:deskcolor="#d1d1d1"
     showgrid="false"
     inkscape:zoom="7.375"
     inkscape:cx="50.101695"
     inkscape:cy="60.40678"
     inkscape:window-width="1920"
     inkscape:window-height="991"
     inkscape:window-x="-9"
     inkscape:window-y="-9"
     inkscape:window-maximized="1"
     inkscape:current-layer="svg1200" />
  <style
     id="style1198">
        path { fill: #000; }
        @media (prefers-color-scheme: dark) {
            path { fill: #FFF; }
        }
    </style>
  <path
     id="path564"
     style="fill:#ffffff;stroke-width:0.645997;stroke-linecap:round;stroke-linejoin:round;paint-order:fill markers stroke"
     d="m 68.32907,78.516329 c -2.206929,-0.0017 -4.413974,0.03756 -6.615231,0.119752 -1.864205,0.04475 -3.732726,0.149578 -5.55703,0.563368 -2.37153,0.552963 -4.785795,0.738286 -7.142121,1.289589 -3.547117,0.839832 -7.030187,1.9685 -10.20066,3.768917 -0.903939,0.524158 -2.07835,1.091349 -2.344845,2.245735 -0.233002,1.815637 0.0875,3.596479 0.131538,5.424018 -0.01489,3.375266 -0.116796,6.751722 -0.27155,10.124022 6.549601,8.86285 16.912958,14.09606 27.933267,14.10554 11.130201,-0.009 21.583276,-5.34643 28.11787,-14.35645 -0.02143,-0.29213 -0.03313,-0.58478 -0.02584,-0.87508 0.102887,-2.739744 0.438374,-5.444442 0.393888,-8.189275 -0.07705,-3.110155 -0.2446,-6.234298 -1.123796,-9.217626 C 91.253233,82.504038 91.025216,81.298293 90.122378,80.604 89.30233,80.196403 88.350358,80.155192 87.46289,79.963623 84.773777,79.433444 82.099482,79.042788 79.338102,78.856421 75.685465,78.635928 72.00727,78.519315 68.329052,78.516329 Z"
     sodipodi:nodetypes="cccccccccccccccccc" />
  <path
     id="path1176"
     style="color:#000000;fill:#ffffff;stroke-width:4.69123;-inkscape-stroke:none"
     d="m 67.462891,11.164062 c -2.789962,-0.0019 -5.724691,0.0727 -7.382813,0.226563 -10.077721,0.935146 -21.369382,4.543024 -27.929687,8.923828 -0.849251,0.567111 -1.602091,1.03125 -1.673829,1.03125 -0.496217,0 -4.744532,3.841661 -6.972656,6.304688 -1.547706,1.710887 -4.507812,5.884256 -4.507812,6.355468 0,0.137256 -0.111513,0.248047 -0.248047,0.248047 -0.136533,0 -0.248047,0.137935 -0.248047,0.306641 0,0.168706 -0.26927,0.868099 -0.597656,1.552734 -2.219806,4.627886 -3.209336,8.480408 -3.78711,14.751953 -0.394948,4.287055 -0.270814,8.026055 0.462891,13.998047 l 0.298828,2.433594 -0.638672,0.544922 c -2.266179,1.940712 -3.1081,5.531989 -2.851562,12.15625 0.08584,2.216631 0.258444,4.923358 0.382812,6.015625 0.124363,1.092276 0.578394,5.371507 1.009766,9.509766 l 0.785156,7.523442 -0.603515,0.47656 c -0.709552,0.55813 -1.41211,1.93121 -1.41211,2.76172 0,1.64058 4.283155,2.06644 6.97461,0.69336 0.05665,-0.0289 0.120742,-0.0735 0.18164,-0.10938 0.772598,-0.99098 2.28898,-3.02736 2.669922,-4.22461 0.516583,-1.62354 0.479991,-7.858994 0.738281,-13.947264 0.25829,-6.088269 -1.697407,-10.110123 1.697266,-14.685547 3.394671,-4.575435 17.859205,-9.003379 23.984375,-9.59375 6.125169,-0.590382 3.171661,-1.698108 18.521484,-1.845703 15.349819,-0.147595 23.689886,0.739428 27.527344,1.625 3.837448,0.885562 8.56009,0.220274 11.2168,6.640625 2.6567,6.420361 2.58398,14.390224 2.58398,18.080078 0,3.689871 -0.88572,9.298179 -0.36914,10.552734 0.31214,0.758077 2.07472,2.299777 3.26172,3.953127 0.12859,0.0684 0.20244,0.10356 0.35156,0.18359 2.46004,1.32041 4.30524,1.66176 5.74414,1.06055 0.85161,-0.35583 0.91602,-0.45714 0.91602,-1.43945 0,-0.84283 -0.15396,-1.2147 -0.76367,-1.84375 -0.7182,-0.74099 -0.74787,-0.84603 -0.4961,-1.750004 0.30888,-1.109071 0.93319,-6.647343 1.29688,-11.511719 0.13742,-1.84321 0.19523,-6.366315 0.1289,-10.052735 -0.10289,-5.715626 -0.18752,-6.884907 -0.58007,-7.943359 -0.71214,-1.920184 -1.54038,-3.085379 -2.5293,-3.556641 -0.70464,-0.335778 -0.89655,-0.564783 -0.86719,-1.042968 0.45565,-7.426375 0.23826,-14.277158 -0.5625,-17.744141 -1.26361,-5.470932 -1.68501,-6.984011 -2.58789,-9.300781 -2.29655,-5.892899 -5.13764,-10.346223 -9.29297,-14.558594 -1.445832,-1.465676 -5.590046,-4.8125 -5.958982,-4.8125 -0.05742,0 -0.58476,-0.320125 -1.171876,-0.71289 -2.004137,-1.34075 -7.460265,-3.884138 -9.382812,-4.373047 -0.341334,-0.08681 -0.844121,-0.255902 -1.117188,-0.376953 -1.351785,-0.599258 -6.453694,-1.784387 -9.68164,-2.248047 -1.083682,-0.1558 -3.729586,-0.234468 -6.519531,-0.236329 z m -7.115235,20.763672 c 1.56664,0.0069 2.680223,0.08764 3.339844,0.244141 0.887665,0.208473 1.567539,0.569651 2.037109,1.082031 0.469573,0.51238 0.767251,1.089592 0.896485,1.732422 0.129046,0.63466 0.216537,1.892293 0.259765,3.771484 l 0.160157,6.949219 c 0.04097,1.781147 -0.01811,2.975427 -0.175782,3.583985 -0.149686,0.600197 -0.429094,1.076945 -0.83789,1.429687 -0.408985,0.344572 -0.91776,0.593101 -1.527344,0.746094 -0.609772,0.144823 -1.531895,0.231386 -2.765625,0.259765 l -6.507813,0.150391 -0.457031,-19.841797 3.861328,-0.08984 c 0.622994,-0.01433 1.194585,-0.01987 1.716797,-0.01758 z m 13.765625,0.0957 3.636719,0.34375 c 2.424637,0.22896 4.053979,0.476328 4.890625,0.74414 0.844783,0.268579 1.500835,0.815007 1.964844,1.638672 0.472913,0.816296 0.629747,2.067726 0.470703,3.751953 -0.145215,1.537774 -0.434837,2.552169 -0.867188,3.044922 -0.43235,0.492752 -1.214849,0.738537 -2.347656,0.738281 0.993228,0.348269 1.645169,0.750903 1.955078,1.207032 0.309911,0.456128 0.4876,0.866738 0.535156,1.232421 0.05646,0.358315 0.01,1.33496 -0.140624,2.929688 l -0.492188,5.210937 -4.771484,-0.449218 0.61914,-6.566407 c 0.09988,-1.057727 0.07674,-1.721872 -0.07031,-1.990234 -0.138909,-0.267594 -0.561668,-0.433155 -1.269532,-0.5 l -0.841796,8.908203 -5.138672,-0.484375 z m -26.482422,0.626953 0.529297,3.9375 -3.414062,0.457031 0.501953,3.730469 3.195312,-0.429688 0.501953,3.742188 -3.195312,0.429687 0.580078,4.326172 3.753906,-0.503906 0.529297,3.935547 -8.86914,1.191406 -2.642579,-19.669922 z m 49.632813,2.388671 c 0.608433,-0.002 1.253066,0.07919 1.933594,0.242188 1.033214,0.247469 1.917534,0.639909 2.654294,1.177734 0.74662,0.531783 1.29,1.194747 1.62891,1.990235 0.3389,0.795487 0.46022,1.6023 0.36523,2.419922 -0.095,0.81762 -0.37956,2.220089 -0.85547,4.207031 l -0.79101,3.302734 c -0.46448,1.939256 -0.84132,3.302015 -1.13086,4.089844 -0.27969,0.781784 -0.742,1.448508 -1.386719,2 -0.63677,0.553395 -1.408218,0.910687 -2.3125,1.072266 -0.904283,0.161576 -1.899437,0.112357 -2.988282,-0.148438 -1.03321,-0.247469 -1.923306,-0.636186 -2.669921,-1.167969 -0.736766,-0.537825 -1.274379,-1.204511 -1.613282,-2 -0.338902,-0.795486 -0.462175,-1.602301 -0.367187,-2.419921 0.09499,-0.817622 0.381519,-2.22009 0.857422,-4.207032 l 0.791015,-3.302734 c 0.464482,-1.939256 0.835544,-3.300246 1.115235,-4.082031 0.28954,-0.78783 0.753855,-1.458324 1.390625,-2.011719 0.644717,-0.551494 1.417983,-0.906782 2.322265,-1.06836 0.339107,-0.06059 0.691581,-0.09255 1.056641,-0.09375 z m -37.25586,0.271485 0.300782,13.052734 c 0.743506,-0.01711 1.196515,-0.174578 1.361328,-0.472656 0.164624,-0.306252 0.23162,-1.121707 0.201172,-2.445313 l -0.175782,-7.708984 c -0.02067,-0.898743 -0.06393,-1.474596 -0.126953,-1.726562 -0.06302,-0.251967 -0.197406,-0.433282 -0.404297,-0.542969 -0.207078,-0.117857 -0.592491,-0.169219 -1.15625,-0.15625 z m 18.923829,0.578125 -0.416016,4.394531 c 0.577682,0.05455 0.988052,0.01589 1.230469,-0.117187 0.25132,-0.140446 0.417788,-0.646987 0.5,-1.517578 L 80.349609,37.5625 C 80.408769,36.936 80.334377,36.513661 80.125,36.296875 79.923758,36.080857 79.525594,35.94476 78.931641,35.888672 Z m -49.501953,0.207031 c 0.791336,0.01235 1.423916,0.169783 1.896484,0.472656 0.480451,0.300717 0.861029,0.720745 1.144531,1.261719 0.289227,0.530936 0.598101,1.395518 0.925781,2.59375 l 0.457032,1.667969 c 0.334144,1.221881 0.450761,2.146704 0.351562,2.775391 -0.0992,0.628685 -0.446941,1.186919 -1.042969,1.671874 -0.588143,0.482801 -1.425804,0.872424 -2.513671,1.169922 L 29.3125,48.074219 31.419922,55.783203 26.443359,57.144531 21.207031,38 26.220703,36.628906 c 1.355894,-0.370794 2.425531,-0.547714 3.208985,-0.533203 z m 68.818359,2.431641 c -0.183635,-0.003 -0.347772,0.06017 -0.492188,0.189453 -0.182701,0.166333 -0.392908,0.746764 -0.630859,1.740234 l -2.158203,9.013672 c -0.26841,1.120636 -0.38984,1.822252 -0.365235,2.105469 0.03255,0.28512 0.215021,0.466923 0.548829,0.546875 0.341753,0.08185 0.595962,-0.01575 0.763671,-0.294922 0.167711,-0.279172 0.38794,-0.988469 0.660157,-2.125 l 2.125,-8.869141 c 0.215108,-0.898098 0.300168,-1.482777 0.255859,-1.753906 -0.03446,-0.277172 -0.205664,-0.453102 -0.515625,-0.527344 -0.06557,-0.01571 -0.130195,-0.02439 -0.191406,-0.02539 z M 27.90625,39.769531 c -0.226318,0.0089 -0.501011,0.05615 -0.824219,0.144531 l 1.332031,4.873047 c 0.144051,-0.03092 0.266662,-0.05986 0.369141,-0.08789 0.45722,-0.125036 0.742404,-0.32169 0.855469,-0.589844 0.118794,-0.278194 0.08074,-0.772943 -0.113281,-1.482422 l -0.429688,-1.572265 c -0.178928,-0.654299 -0.397393,-1.052333 -0.65625,-1.19336 -0.129428,-0.07051 -0.306885,-0.100734 -0.533203,-0.0918 z" />
</svg>
