<?xml version="1.0" encoding="UTF-8" standalone="no"?>
<svg
   fill="none"
   viewBox="0 0 128 128"
   version="1.1"
   id="svg1200"
   sodipodi:docname="favicon.svg"
   inkscape:version="1.2.2 (732a01da63, 2022-12-09)"
   xmlns:inkscape="http://www.inkscape.org/namespaces/inkscape"
   xmlns:sodipodi="http://sodipodi.sourceforge.net/DTD/sodipodi-0.dtd"
   xmlns="http://www.w3.org/2000/svg"
   xmlns:svg="http://www.w3.org/2000/svg">
  <defs
     id="defs1204">
    <rect
       x="-146.88645"
       y="-56.376785"
       width="166.06223"
       height="56.376785"
       id="rect291" />
  </defs>
  <sodipodi:namedview
     id="namedview1202"
     pagecolor="#ffffff"
     bordercolor="#000000"
     borderopacity="0.25"
     inkscape:showpageshadow="2"
     inkscape:pageopacity="0.0"
     inkscape:pagecheckerboard="0"
     inkscape:deskcolor="#d1d1d1"
     showgrid="false"
     inkscape:zoom="2.6074563"
     inkscape:cx="63.66358"
     inkscape:cy="116.97224"
     inkscape:window-width="1440"
     inkscape:window-height="829"
     inkscape:window-x="-8"
     inkscape:window-y="-8"
     inkscape:window-maximized="1"
     inkscape:current-layer="svg1200" />
  <style
     id="style1198">
        path { fill: #000; }
        @media (prefers-color-scheme: dark) {
            path { fill: #FFF; }
        }
    </style>
  <path
     id="path564"
     style="fill:#ffffff;stroke-width:0.645997;stroke-linecap:round;stroke-linejoin:round;paint-order:fill markers stroke"
     d="m 68.32907,78.516329 c -2.206929,-0.0017 -4.413974,0.03756 -6.615231,0.119752 -1.864205,0.04475 -3.732726,0.149578 -5.55703,0.563368 -2.37153,0.552963 -4.785795,0.738286 -7.142121,1.289589 -3.547117,0.839832 -7.030187,1.9685 -10.20066,3.768917 -0.903939,0.524158 -2.07835,1.091349 -2.344845,2.245735 -0.233002,1.815637 0.0875,3.596479 0.131538,5.424018 -0.01489,3.375266 -0.116796,6.751722 -0.27155,10.124022 6.549601,8.86285 16.912958,14.09606 27.933267,14.10554 11.130201,-0.009 21.583276,-5.34643 28.11787,-14.35645 -0.02143,-0.29213 -0.03313,-0.58478 -0.02584,-0.87508 0.102887,-2.739744 0.438374,-5.444442 0.393888,-8.189275 -0.07705,-3.110155 -0.2446,-6.234298 -1.123796,-9.217626 C 91.253233,82.504038 91.025216,81.298293 90.122378,80.604 89.30233,80.196403 88.350358,80.155192 87.46289,79.963623 84.773777,79.433444 82.099482,79.042788 79.338102,78.856421 75.685465,78.635928 72.00727,78.519315 68.329052,78.516329 Z"
     sodipodi:nodetypes="cccccccccccccccccc" />
  <path
     id="path549"
     style="fill:#ffffff;stroke:none;stroke-width:2.07874;stroke-linecap:round;stroke-linejoin:round;paint-order:markers stroke fill;fill-opacity:1"
     d="M 64 11.164062 A 52.657711 52.835972 0 0 0 11.341797 64 A 52.657711 52.835972 0 0 0 64 116.83594 A 52.657711 52.835972 0 0 0 67.832031 116.56055 L 117.69727 116.1582 L 116.6582 64 A 52.657711 52.835972 0 0 0 64 11.164062 z " />
</svg>
