<?xml version="1.0" encoding="UTF-8" standalone="no"?>
<svg
   fill="none"
   viewBox="0 0 128 128"
   version="1.1"
   id="svg1200"
   sodipodi:docname="favicon.svg"
   inkscape:version="1.2.2 (732a01da63, 2022-12-09)"
   xmlns:inkscape="http://www.inkscape.org/namespaces/inkscape"
   xmlns:sodipodi="http://sodipodi.sourceforge.net/DTD/sodipodi-0.dtd"
   xmlns="http://www.w3.org/2000/svg"
   xmlns:svg="http://www.w3.org/2000/svg">
  <defs
     id="defs1204" />
  <sodipodi:namedview
     id="namedview1202"
     pagecolor="#ffffff"
     bordercolor="#000000"
     borderopacity="0.25"
     inkscape:showpageshadow="2"
     inkscape:pageopacity="0.0"
     inkscape:pagecheckerboard="0"
     inkscape:deskcolor="#d1d1d1"
     showgrid="false"
     inkscape:zoom="0.921875"
     inkscape:cx="-94.372881"
     inkscape:cy="126.91525"
     inkscape:window-width="1440"
     inkscape:window-height="829"
     inkscape:window-x="-8"
     inkscape:window-y="-8"
     inkscape:window-maximized="1"
     inkscape:current-layer="svg1200" />
  <style
     id="style1198">
        path { fill: #000; }
        @media (prefers-color-scheme: dark) {
            path { fill: #FFF; }
        }
    </style>
  <path
     id="path564"
     style="fill:#ffffff;stroke-width:0.645997;stroke-linecap:round;stroke-linejoin:round;paint-order:fill markers stroke"
     d="m 68.32907,78.516329 c -2.206929,-0.0017 -4.413974,0.03756 -6.615231,0.119752 -1.864205,0.04475 -3.732726,0.149578 -5.55703,0.563368 -2.37153,0.552963 -4.785795,0.738286 -7.142121,1.289589 -3.547117,0.839832 -7.030187,1.9685 -10.20066,3.768917 -0.903939,0.524158 -2.07835,1.091349 -2.344845,2.245735 -0.233002,1.815637 0.0875,3.596479 0.131538,5.424018 -0.01489,3.375266 -0.116796,6.751722 -0.27155,10.124022 6.549601,8.86285 16.912958,14.09606 27.933267,14.10554 11.130201,-0.009 21.583276,-5.34643 28.11787,-14.35645 -0.02143,-0.29213 -0.03313,-0.58478 -0.02584,-0.87508 0.102887,-2.739744 0.438374,-5.444442 0.393888,-8.189275 -0.07705,-3.110155 -0.2446,-6.234298 -1.123796,-9.217626 C 91.253233,82.504038 91.025216,81.298293 90.122378,80.604 89.30233,80.196403 88.350358,80.155192 87.46289,79.963623 84.773777,79.433444 82.099482,79.042788 79.338102,78.856421 75.685465,78.635928 72.00727,78.519315 68.329052,78.516329 Z"
     sodipodi:nodetypes="cccccccccccccccccc" />
  <path
     id="path302"
     style="fill:#ffffff;stroke-width:0.248244"
     d="m 67.461983,11.163657 c -2.789965,-0.002 -5.723745,0.07353 -7.381869,0.227394 -10.07773,0.935148 -21.369091,4.542889 -27.929403,8.923698 -0.849251,0.567111 -1.602455,1.03128 -1.674193,1.03128 -0.496218,0 -4.745011,3.841013 -6.973139,6.304043 -1.547708,1.710888 -4.507666,5.883739 -4.507666,6.354952 0,0.137256 -0.111705,0.249699 -0.248244,0.249699 -0.136534,0 -0.248244,0.13772 -0.248244,0.306426 0,0.168707 -0.268466,0.86689 -0.596854,1.551526 -2.219808,4.627891 -3.208917,8.481518 -3.786694,14.753065 -0.394946,4.287061 -0.271641,8.025189 0.462065,13.997196 l 0.299154,2.432982 -0.638064,0.545939 c -2.266183,1.940724 -3.108436,5.530973 -2.851898,12.155242 0.08583,2.216632 0.257694,4.92425 0.382063,6.016522 0.124363,1.092284 0.579059,5.371622 1.01043,9.509894 l 0.784491,7.523915 -0.603641,0.47516 c -0.709553,0.55813 -1.411888,1.93219 -1.411888,2.76269 0,1.64059 4.282651,2.06643 6.974108,0.69334 0.05665,-0.0289 0.121891,-0.0727 0.18279,-0.10865 0.772598,-0.99098 2.288652,-3.02775 2.669593,-4.22499 0.516583,-1.62354 0.479654,-7.85946 0.737945,-13.947743 0.25829,-6.088271 -1.697695,-10.110233 1.696982,-14.685665 3.394674,-4.575444 17.858986,-9.003393 23.984162,-9.593768 6.125175,-0.590388 3.173443,-1.697273 18.523282,-1.844859 15.349835,-0.147597 23.689027,0.738198 27.526487,1.623767 3.837454,0.88557 8.560332,0.221137 11.217042,6.641495 2.65671,6.42037 2.58281,14.390753 2.58281,18.080617 0,3.689874 -0.88555,9.298248 -0.36897,10.552793 0.31215,0.758073 2.07555,2.298683 3.26255,3.952033 0.1286,0.0684 0.20193,0.10425 0.35104,0.18424 2.46005,1.32041 4.30611,1.66061 5.74501,1.0594 0.85161,-0.35583 0.9154,-0.45575 0.9154,-1.43807 0,-0.84283 -0.15393,-1.21482 -0.76363,-1.84388 -0.71821,-0.74099 -0.74778,-0.84586 -0.49601,-1.749843 0.30888,-1.109069 0.93231,-6.647449 1.29601,-11.511838 0.13741,-1.843204 0.19627,-6.367456 0.12993,-10.053885 -0.1029,-5.715632 -0.18829,-6.885351 -0.58085,-7.943803 -0.71213,-1.920188 -1.54007,-3.083681 -2.52898,-3.554943 -0.70465,-0.33578 -0.8958,-0.566182 -0.86643,-1.044368 0.45565,-7.426381 0.23882,-14.275682 -0.56195,-17.742663 -1.2636,-5.470938 -1.68525,-6.985595 -2.58813,-9.302366 -2.29654,-5.892906 -5.13927,-10.345303 -9.29461,-14.557679 -1.445832,-1.465678 -5.588921,-4.812154 -5.957859,-4.812154 -0.05742,0 -0.584771,-0.321421 -1.171885,-0.714187 -2.004139,-1.34075 -7.461278,-3.883484 -9.383826,-4.372394 -0.341334,-0.0868 -0.844028,-0.256646 -1.117094,-0.377699 -1.351786,-0.599258 -6.453573,-1.783142 -9.681521,-2.246805 -1.083683,-0.155797 -3.729854,-0.23523 -6.519802,-0.23709 z" />
  <g
     id="path618"
     transform="matrix(0.9382455,0,0,0.9382455,-26.888829,-33.511189)"
     style="fill:#ffffff">
    <path
       style="color:#000000;fill:#ffffff;stroke-width:5;-inkscape-stroke:none"
       d="m 100.5609,47.615304 c -2.973597,-0.002 -6.100477,0.07837 -7.867737,0.242363 -10.741038,0.996698 -22.775586,4.841897 -29.767692,9.511047 -0.905148,0.604438 -1.707927,1.099158 -1.784387,1.099158 -0.528879,0 -5.057324,4.093825 -7.432104,6.718969 -1.649577,1.823498 -4.804358,6.271002 -4.804358,6.77323 0,0.14629 -0.119063,0.266134 -0.264584,0.266134 -0.145519,0 -0.264583,0.146785 -0.264583,0.326595 0,0.17981 -0.286136,0.923948 -0.636137,1.653646 -2.365914,4.932494 -3.420126,9.039764 -4.035929,15.724104 -0.420944,4.56923 -0.289522,8.5534 0.492476,14.91847 l 0.318844,2.59312 -0.680062,0.58188 c -2.41534,2.06845 -3.313031,5.89501 -3.039608,12.95528 0.09149,2.36253 0.274658,5.24837 0.407211,6.41253 0.132549,1.16417 0.617171,5.72518 1.076936,10.13582 l 0.836125,8.01914 -0.643372,0.50643 c -0.756254,0.59487 -1.504817,2.05936 -1.504817,2.94453 0,1.74857 4.564532,2.20243 7.433138,0.73897 0.06038,-0.0308 0.129914,-0.0775 0.19482,-0.11576 0.823451,-1.05621 2.439289,-3.22703 2.845304,-4.50308 0.550585,-1.7304 0.511225,-8.37676 0.786516,-14.86576 0.27529,-6.489 -1.809436,-10.77569 1.808675,-15.65227 3.618109,-4.87659 19.03445,-9.59599 25.56278,-10.22522 6.528328,-0.62924 3.382316,-1.80898 19.742468,-1.96629 16.360147,-0.15731 25.248217,0.78679 29.338257,1.73065 4.09003,0.94385 9.12377,0.23569 11.95534,7.07863 2.83157,6.84295 2.7528,15.33794 2.7528,19.27066 0,3.93274 -0.94383,9.91025 -0.39325,11.24738 0.33269,0.80797 2.21217,2.44997 3.4773,4.21214 0.13705,0.0729 0.21521,0.11107 0.37414,0.19637 2.62196,1.40732 4.58953,1.76991 6.12314,1.12913 0.90766,-0.37925 0.97565,-0.48575 0.97565,-1.53272 0,-0.89831 -0.16406,-1.29478 -0.8139,-1.96525 -0.76547,-0.78976 -0.79699,-0.90153 -0.52865,-1.86501 0.32921,-1.18207 0.99368,-7.08498 1.38131,-12.26953 0.14646,-1.96453 0.20919,-6.78657 0.13849,-10.71563 -0.10966,-6.09183 -0.20069,-7.33854 -0.61908,-8.46666 -0.75901,-2.04657 -1.64144,-3.28664 -2.69544,-3.78892 -0.75102,-0.35788 -0.95476,-0.60345 -0.92346,-1.11311 0.48564,-7.91518 0.25454,-15.21529 -0.59893,-18.91047 -1.34678,-5.83103 -1.79618,-7.44538 -2.75849,-9.91464 -2.4477,-6.280771 -5.47754,-11.026222 -9.90637,-15.515852 -1.541,-1.562148 -5.95678,-5.128886 -6.35,-5.128886 -0.0612,0 -0.62326,-0.342576 -1.24902,-0.761194 -2.13605,-1.428998 -7.95237,-4.139091 -10.00146,-4.660181 -0.3638,-0.09252 -0.89958,-0.273539 -1.19062,-0.402559 -1.44076,-0.6387 -6.87834,-1.900508 -10.31875,-2.394686 -1.15501,-0.166055 -3.97535,-0.250714 -6.94893,-0.252698 z"
       id="path1176" />
  </g>
</svg>
